<svg aria-hidden="true" style="position: absolute; width: 0; height: 0; overflow: hidden;" version="1.1" xmlns="http://www.w3.org/2000/svg" xmlns:xlink="http://www.w3.org/1999/xlink">
<defs>
<symbol id="zap" viewBox="0 0 32 32">
<path fill="none" stroke="#fff" style="stroke: var(--color1, #fff)" stroke-linejoin="round" stroke-linecap="round" stroke-miterlimit="4" stroke-width="2.6667" d="M17.333 2.667l-13.333 16h12l-1.333 10.667 13.333-16h-12l1.333-10.667z"></path>
</symbol>
<symbol id="mail" viewBox="0 0 33 32">
<path fill="none" stroke="#fff" style="stroke: var(--color1, #fff)" stroke-linejoin="round" stroke-linecap="round" stroke-miterlimit="4" stroke-width="2.6667" d="M30.222 8c0-1.467-1.2-2.667-2.667-2.667h-21.333c-1.467 0-2.667 1.2-2.667 2.667M30.222 8v16c0 1.467-1.2 2.667-2.667 2.667h-21.333c-1.467 0-2.667-1.2-2.667-2.667v-16M30.222 8l-13.333 9.333-13.333-9.333"></path>
</symbol>
<symbol id="bar-chart-2" viewBox="0 0 33 32">
<path fill="none" stroke="#fff" style="stroke: var(--color1, #fff)" stroke-linejoin="round" stroke-linecap="round" stroke-miterlimit="4" stroke-width="2.6667" d="M24.445 26.667v-13.333M16.445 26.667v-21.333M8.444 26.667v-8"></path>
</symbol>
<symbol id="logomark" viewBox="0 0 20 32">
<path fill="#039855" style="fill: var(--color2, #039855)" d="M0.333 12.8h6.4v6.4h-6.4v-6.4z"></path>
<path fill="#027a48" style="fill: var(--color3, #027a48)" d="M19.533 19.2h-6.4v-6.4h6.4v6.4z"></path>
<path fill="#a6f4c5" style="fill: var(--color4, #a6f4c5)" d="M6.733 12.8l6.4-6.4v6.4l-6.4 6.4v-6.4z"></path>
<path fill="#6ce9a6" style="fill: var(--color5, #6ce9a6)" d="M13.133 19.2l-6.4 6.4v-6.4l6.4-6.4v6.4z"></path>
<path fill="#32d583" style="fill: var(--color6, #32d583)" d="M0.333 12.8l12.8-12.8v6.4l-6.4 6.4h-6.4z"></path>
<path fill="#12b76a" style="fill: var(--color7, #12b76a)" d="M19.533 19.2l-12.8 12.8v-6.4l6.4-6.4h6.4z"></path>
</symbol>
</defs>
</svg>
